<?xml version="1.0" encoding="iso-8859-1"?>
<!-- Generator: Adobe Illustrator 16.0.0, SVG Export Plug-In . SVG Version: 6.00 Build 0)  -->
<!DOCTYPE svg PUBLIC "-//W3C//DTD SVG 1.1//EN" "http://www.w3.org/Graphics/SVG/1.1/DTD/svg11.dtd">
<svg xmlns="http://www.w3.org/2000/svg" xmlns:xlink="http://www.w3.org/1999/xlink" version="1.1" id="Capa_1" x="0px" y="0px" width="512px" height="512px" viewBox="0 0 455.462 455.462" style="enable-background:new 0 0 455.462 455.462;" xml:space="preserve">
<g>
	<g id="Layer_3_26_">
		<g>
			<path d="M454.141,288.999c-1.913-3.12-5.532-4.765-9.139-4.152c-0.169,0.028-16.773,2.815-29.969,2.904     c20.757-33.023,31.146-76.582,31.689-132.554c0.049-4.912-3.867-8.947-8.778-9.047c-1.23-0.025-2.517-0.038-3.851-0.038     c-20.696,0-54.278,3.098-86.46,11.792c-31.148,8.416-53.854,20.026-67.749,34.613c-8.282-13.577-17.666-24.802-27.995-33.474     c-16.055-13.476-34.458-20.885-54.7-22.022c-1.096-0.062-2.215-0.093-3.327-0.093c-38.278,0-78.573,37.02-100.401,60.658     c2.263-18.054,2.772-36.904,0.184-55.197c2.862-5.914,9.676-22.493,6.063-40.07c-4.415-21.486-22.566-35.466-23.337-36.051     c-1.723-1.307-3.924-1.803-6.043-1.372c-2.117,0.436-3.944,1.763-5.012,3.644c-0.479,0.841-11.646,20.846-7.229,42.333     c3.468,16.875,15.404,29.116,20.743,33.878c9.57,68.751-29.171,149.523-29.637,150.482c-1.814,3.725-0.267,8.214,3.457,10.027     c1.058,0.516,2.177,0.759,3.279,0.759c2.778,0,5.449-1.55,6.748-4.216c0.979-2.009,14.047-29.19,23.365-65.692     c11.711,12.772,18.454,29.682,25.504,47.432c7.186,18.092,14.616,36.8,27.919,53.16c15.129,18.605,34.392,32.68,57.254,41.832     c20.196,8.084,42.747,12.183,67.026,12.183c38.163,0,79.182-10.67,109.726-28.542c58.265-34.092,79.354-61.979,80.225-63.148     C455.877,296.088,456.053,292.119,454.141,288.999z M72.78,107.853c-1.692-8.23-0.148-16.47,1.74-22.514     c4.127,4.823,8.81,11.799,10.494,20c1.692,8.229,0.149,16.467-1.74,22.513C79.147,123.029,74.465,116.053,72.78,107.853z      M364.419,346.705c-27.917,16.336-65.552,26.088-100.673,26.088c-32.771,0-78.52-8.224-110.372-47.398     c-11.567-14.226-18.482-31.634-25.169-48.469c-7.859-19.789-15.957-40.172-31.656-55.788     c19.316-23.146,62.509-66.286,97.314-66.286c0.778,0,1.56,0.021,2.321,0.064c30.631,1.72,55.716,21.217,74.558,57.948     c1.495,2.914,4.46,4.78,7.733,4.868c3.305,0.081,6.334-1.617,7.983-4.447c20.718-35.552,101.181-48.126,142.158-49.178     c-1.662,54.505-13.546,95.4-36.231,124.826c-1.584,2.055-2.2,4.696-1.688,7.24c0.512,2.544,2.101,4.741,4.355,6.022     c4.177,2.374,10.32,3.479,19.338,3.479c2.645,0,5.39-0.096,8.119-0.255C410.655,316.003,391.92,330.613,364.419,346.705z" fill="#FFFFFF"/>
			<path d="M155.756,204.563c-17.846,0.044-17.939,27.625-0.084,27.734h0.002c0.039,0,0.068,0.001,0.105,0.001     c-0.035,0-0.068-0.001-0.104-0.001C173.746,232.404,173.768,204.517,155.756,204.563z" fill="#FFFFFF"/>
			<path d="M104.161,157.038c1.329,1.04,2.959,1.592,4.62,1.592c0.467,0,0.936-0.043,1.401-0.132     c0.95-0.181,23.427-4.625,36.939-21.903c13.516-17.279,12.414-40.163,12.36-41.129c-0.119-2.159-1.165-4.161-2.868-5.493     c-1.703-1.333-3.897-1.866-6.021-1.46c-0.95,0.181-23.425,4.625-36.939,21.903c-13.516,17.279-12.414,40.163-12.36,41.129     C101.412,153.704,102.458,155.706,104.161,157.038z M125.468,119.657c5.178-6.618,12.455-10.777,18.283-13.252     c-1.002,6.269-3.285,14.354-8.444,20.948c-5.175,6.618-12.451,10.776-18.282,13.251     C118.026,134.337,120.311,126.251,125.468,119.657z" fill="#FFFFFF"/>
			<path d="M57.055,167.894c7.753,0,13.33-1.213,13.563-1.265c2.111-0.466,3.919-1.821,4.958-3.717s1.21-4.147,0.469-6.179     c-0.332-0.908-8.346-22.372-27.579-32.92c-8.139-4.464-18.174-6.824-29.02-6.824c-7.753,0-13.33,1.212-13.564,1.264     c-2.11,0.466-3.918,1.821-4.958,3.716c-1.039,1.896-1.211,4.148-0.469,6.179c0.331,0.909,8.344,22.373,27.579,32.921     c8.139,4.464,18.174,6.824,29.019,6.824C57.053,167.894,57.054,167.894,57.055,167.894z M19.202,131.989     c5.805-0.049,14.446,0.805,22.051,4.975c7.379,4.047,12.662,10.571,16.045,15.929c-0.081,0-0.161,0-0.243,0h-0.001     c-5.81,0-14.309-0.864-21.807-4.976C27.867,143.871,22.584,137.346,19.202,131.989z" fill="#FFFFFF"/>
		</g>
	</g>
</g>
<g>
</g>
<g>
</g>
<g>
</g>
<g>
</g>
<g>
</g>
<g>
</g>
<g>
</g>
<g>
</g>
<g>
</g>
<g>
</g>
<g>
</g>
<g>
</g>
<g>
</g>
<g>
</g>
<g>
</g>
</svg>
