<?xml version="1.0" encoding="iso-8859-1"?>
<!-- Generator: Adobe Illustrator 19.0.0, SVG Export Plug-In . SVG Version: 6.00 Build 0)  -->
<svg xmlns="http://www.w3.org/2000/svg" xmlns:xlink="http://www.w3.org/1999/xlink" version="1.1" id="Layer_1" x="0px" y="0px" viewBox="0 0 511.987 511.987" style="enable-background:new 0 0 511.987 511.987;" xml:space="preserve" width="512px" height="512px">
<g>
	<g>
		<g>
			<path d="M289.635,391.019c-0.321-1.328-0.738-2.612-1.206-3.87c-0.26-0.703-0.486-1.414-0.79-2.091     c-0.738-1.64-1.597-3.22-2.56-4.712c-0.503-0.772-1.102-1.475-1.666-2.204c-0.607-0.79-1.232-1.571-1.901-2.308     c-0.703-0.764-1.432-1.501-2.204-2.195c-0.634-0.581-1.319-1.119-1.996-1.649c-2.161-1.692-4.495-3.211-7.064-4.374l-1.302-0.59     c-4.009-1.623-8.366-2.56-12.956-2.56c-4.27,0-8.313,0.876-12.097,2.291l-0.243,0.095c-1.371,0.521-2.647,1.172-3.914,1.84     c-0.503,0.269-1.015,0.521-1.501,0.816c-1.033,0.607-2.013,1.284-2.968,1.987c-0.807,0.607-1.588,1.258-2.343,1.935     c-0.642,0.573-1.302,1.119-1.9,1.736c-1.362,1.414-2.647,2.916-3.758,4.556c-0.087,0.13-0.148,0.269-0.234,0.408     c-1.041,1.571-1.935,3.237-2.708,4.973c-0.226,0.495-0.408,1.015-0.607,1.519c-0.564,1.458-1.033,2.968-1.406,4.513     c-0.13,0.564-0.278,1.119-0.391,1.692c-0.382,2.065-0.642,4.174-0.642,6.352c0,2.039,0.269,4.018,0.607,5.97     c0.139,0.772,0.312,1.545,0.503,2.317c0.26,1.059,0.607,2.074,0.963,3.098c0.876,2.43,1.944,4.808,3.358,7.047l0.911,1.458     c6.292,8.93,16.636,14.822,28.368,14.822c16.636,0,30.555-11.785,33.913-27.431l0.581-5.12c0.095-0.712,0.217-1.423,0.217-2.161     c0-2.109-0.26-4.148-0.616-6.144C289.957,392.355,289.8,391.687,289.635,391.019z" fill="#FFFFFF"/>
			<path d="M222.161,359.674c1.536-1.319,3.124-2.569,4.808-3.706c-6.274-5.649-14.405-8.86-23.04-8.86     c-19.144,0-34.712,15.568-34.712,34.712c0,20.124,17.417,36.578,37.697,34.564c-0.929-2.638-1.658-5.354-2.152-8.166     c-0.043-0.278-0.078-0.555-0.121-0.842c-0.434-2.682-0.712-5.406-0.712-8.201c0-2.022,0.139-4.009,0.364-5.97     c0.087-0.712,0.217-1.406,0.321-2.117c0.191-1.206,0.408-2.412,0.677-3.593c0.2-0.868,0.425-1.718,0.668-2.56     c0.269-0.972,0.581-1.918,0.911-2.855c0.321-0.929,0.633-1.848,1.007-2.76c0.321-0.772,0.694-1.519,1.05-2.274     c0.859-1.814,1.814-3.567,2.872-5.268c0.391-0.625,0.746-1.267,1.163-1.874c0.555-0.816,1.172-1.588,1.779-2.378     c0.59-0.772,1.198-1.536,1.84-2.274c0.529-0.625,1.076-1.224,1.649-1.814c0.981-1.041,2.005-2.022,3.063-2.977     C221.588,360.203,221.866,359.926,222.161,359.674z" fill="#FFFFFF"/>
			<path d="M395.96,145.569c9.502-3.879,16.236-13.199,16.236-24.09c0-11.793-7.923-21.66-18.692-24.854l31.77-44.475     c2.977-4.174,4.443-9.138,4.105-13.928l-0.104-1.371c-1.267-14.657-10.145-27.058-23.769-33.159     c-13.815-6.187-29.236-4.53-41.229,4.452c-10.891,8.157-27.987,17.877-47.538,17.877c-12.8,0-24.212-3.159-33.905-9.39     C266.52,6.14,245.45,6.14,229.153,16.623c-9.693,6.24-21.105,9.398-33.905,9.398c-19.551,0-36.647-9.719-47.538-17.877     c-11.984-8.982-27.414-10.639-41.229-4.452C92.865,9.793,83.97,22.194,82.712,36.842l-0.104,1.336     c-0.33,4.842,1.128,9.806,4.113,13.98l31.761,44.466c-10.769,3.193-18.692,13.06-18.692,24.854     c0,10.891,6.734,20.202,16.236,24.09c-26.633,30.286-85.66,112.345-85.66,244.927v17.208c0,33.957,19.881,64.451,50.653,77.685     c41.038,17.651,99.909,26.598,174.974,26.598s133.936-8.947,174.983-26.598c30.763-13.234,50.645-43.728,50.645-77.685v-17.208     C481.621,257.914,422.593,175.855,395.96,145.569z M316.739,416.53c-3.792,0-7.55-0.443-11.247-1.284     c-6.795,20.862-26.398,35.996-49.499,35.996c-16.158,0-30.625-7.402-40.179-18.987c-3.957,0.963-7.932,1.631-11.889,1.631     c-28.715,0-52.068-23.352-52.068-52.068c0-28.715,23.352-52.068,52.068-52.068c15.612,0,30.104,6.934,39.953,18.84     c3.888-0.937,7.932-1.484,12.114-1.484c3.948,0,7.784,0.477,11.481,1.319c6.804-21.105,26.398-36.031,49.265-36.031     c28.715,0,52.068,23.352,52.068,52.068S345.455,416.53,316.739,416.53z M188.557,280.832c0.33-0.399,32.725-40.014,32.725-72.574     c0.026-1.744,0.833-34.113,17.104-60.746h35.215c16.271,26.633,17.078,58.975,17.104,60.598c0,28.837,18.97,34.955,19.777,35.206     c4.547,1.388,7.185,6.179,5.858,10.743c-1.102,3.784-4.53,6.266-8.287,6.266c-0.764,0-1.545-0.104-2.317-0.321     c-1.319-0.365-32.386-9.476-32.386-51.747c-0.009-0.226-0.894-32.985-17.356-55.93c-16.549,23.005-17.356,55.704-17.356,56.077     c0,38.686-35.206,81.677-36.699,83.491c-1.718,2.065-4.2,3.141-6.691,3.141c-1.953,0-3.905-0.651-5.528-1.987     C186.023,289.996,185.511,284.529,188.557,280.832z M386.163,130.157h-5.346H255.994H131.17h-5.346     c-4.782,0-8.678-3.896-8.678-8.678s3.896-8.678,8.678-8.678h4.209h251.921h4.209c4.782,0,8.678,3.896,8.678,8.678     S390.945,130.157,386.163,130.157z" fill="#FFFFFF"/>
			<path d="M316.739,329.75c-15.681,0-29.089,10.552-33.211,25.314c5.458,3.419,10.223,7.81,14.076,12.939     c0.043,0.061,0.087,0.122,0.13,0.182c3.705,4.972,6.543,10.596,8.287,16.705c0.095,0.321,0.165,0.651,0.252,0.972     c0.408,1.562,0.755,3.15,1.024,4.764c0.095,0.564,0.182,1.128,0.26,1.701c0.191,1.458,0.312,2.924,0.382,4.408     c0.017,0.434,0.095,0.85,0.113,1.284c2.855,0.772,5.762,1.154,8.687,1.154c19.144,0,34.712-15.568,34.712-34.712     C351.451,345.318,335.883,329.75,316.739,329.75z" fill="#FFFFFF"/>
		</g>
	</g>
</g>
<g>
</g>
<g>
</g>
<g>
</g>
<g>
</g>
<g>
</g>
<g>
</g>
<g>
</g>
<g>
</g>
<g>
</g>
<g>
</g>
<g>
</g>
<g>
</g>
<g>
</g>
<g>
</g>
<g>
</g>
</svg>
