<svg height="512pt" viewBox="0 0 512 512" width="512pt" xmlns="http://www.w3.org/2000/svg"><path d="m106 151c-8.402344 0-15 6.597656-15 15 0 8.398438 6.597656 15 15 15s15-6.601562 15-15c0-8.402344-6.597656-15-15-15zm240-60c-8.402344 0-15 6.597656-15 15 0 8.398438 6.597656 15 15 15s15-6.601562 15-15c0-8.402344-6.597656-15-15-15zm0 0c-8.402344 0-15 6.597656-15 15 0 8.398438 6.597656 15 15 15s15-6.601562 15-15c0-8.402344-6.597656-15-15-15zm60 240c-8.402344 0-15 6.597656-15 15 0 8.398438 6.597656 15 15 15s15-6.601562 15-15c0-8.402344-6.597656-15-15-15zm0-120c-8.402344 0-15 6.597656-15 15 0 8.398438 6.597656 15 15 15s15-6.601562 15-15c0-8.402344-6.597656-15-15-15zm-60-120c-8.402344 0-15 6.597656-15 15 0 8.398438 6.597656 15 15 15s15-6.601562 15-15c0-8.402344-6.597656-15-15-15zm60 240c-8.402344 0-15 6.597656-15 15 0 8.398438 6.597656 15 15 15s15-6.601562 15-15c0-8.402344-6.597656-15-15-15zm0-120c-8.402344 0-15 6.597656-15 15 0 8.398438 6.597656 15 15 15s15-6.601562 15-15c0-8.402344-6.597656-15-15-15zm-60-120c-8.402344 0-15 6.597656-15 15 0 8.398438 6.597656 15 15 15s15-6.601562 15-15c0-8.402344-6.597656-15-15-15zm60 240c-8.402344 0-15 6.597656-15 15 0 8.398438 6.597656 15 15 15s15-6.601562 15-15c0-8.402344-6.597656-15-15-15zm0 0c-8.402344 0-15 6.597656-15 15 0 8.398438 6.597656 15 15 15s15-6.601562 15-15c0-8.402344-6.597656-15-15-15zm106-270v-61h-301v232.300781l-34.5 34.199219-.601562-.601562c3.300781 6 5.101562 12.902343 5.101562 20.101562 0 24.898438-20.101562 45-45 45-24.902344 0-45-20.101562-45-45 0-24.902344 20.097656-45 45-45 7.199219 0 14.097656 1.800781 20.097656 5.097656l-.597656-.601562 25.496094-25.800782v-219.695312h-60v123.699219c17.402344 6 30 22.800781 30 42.300781 0 24.898438-20.097656 45-45 45-24.898438 0-45-20.101562-45-45 0-19.5 12.601562-36.300781 30-42.300781v-123.699219h-90.996094v391h123.699219c6-17.402344 22.800781-30 42.300781-30 24.902344 0 45 20.097656 45 45 0 24.898438-20.097656 45-45 45-19.5 0-36.300781-12.601562-42.300781-30h-123.699219v91h241v-354.101562l61.5-40.800782c-.898438-3.597656-1.5-7.199218-1.5-11.097656 0-24.902344 20.097656-45 45-45s45 20.097656 45 45c0 24.898438-20.097656 45-45 45-9.902344 0-19.199219-3.300781-26.699219-9l-48.300781 32.097656v337.902344h30v-234.101562l61.5-40.800782c-.898438-3.597656-1.5-7.199218-1.5-11.097656 0-24.902344 20.097656-45 45-45s45 20.097656 45 45c0 24.898438-20.097656 45-45 45-9.902344 0-19.199219-3.300781-26.699219-9l-48.300781 32.097656v217.902344h30v-91h30v91h30v-91h30v91h61v-151h-63.699219c-6 17.398438-22.800781 30-42.300781 30-24.902344 0-45-20.101562-45-45 0-24.902344 20.097656-45 45-45 19.5 0 36.300781 12.597656 42.300781 30h63.699219v-180h-91v-30h91v-30h-91v-30zm-106 270c-8.402344 0-15 6.597656-15 15 0 8.398438 6.597656 15 15 15s15-6.601562 15-15c0-8.402344-6.597656-15-15-15zm0 0c-8.402344 0-15 6.597656-15 15 0 8.398438 6.597656 15 15 15s15-6.601562 15-15c0-8.402344-6.597656-15-15-15zm-240 60c-8.402344 0-15 6.597656-15 15 0 8.398438 6.597656 15 15 15s15-6.601562 15-15c0-8.402344-6.597656-15-15-15zm240-180c-8.402344 0-15 6.597656-15 15 0 8.398438 6.597656 15 15 15s15-6.601562 15-15c0-8.402344-6.597656-15-15-15zm0 120c-8.402344 0-15 6.597656-15 15 0 8.398438 6.597656 15 15 15s15-6.601562 15-15c0-8.402344-6.597656-15-15-15zm-60-240c-8.402344 0-15 6.597656-15 15 0 8.398438 6.597656 15 15 15s15-6.601562 15-15c0-8.402344-6.597656-15-15-15zm60 120c-8.402344 0-15 6.597656-15 15 0 8.398438 6.597656 15 15 15s15-6.601562 15-15c0-8.402344-6.597656-15-15-15zm0 120c-8.402344 0-15 6.597656-15 15 0 8.398438 6.597656 15 15 15s15-6.601562 15-15c0-8.402344-6.597656-15-15-15zm-60-240c-8.402344 0-15 6.597656-15 15 0 8.398438 6.597656 15 15 15s15-6.601562 15-15c0-8.402344-6.597656-15-15-15zm60 120c-8.402344 0-15 6.597656-15 15 0 8.398438 6.597656 15 15 15s15-6.601562 15-15c0-8.402344-6.597656-15-15-15zm-60-120c-8.402344 0-15 6.597656-15 15 0 8.398438 6.597656 15 15 15s15-6.601562 15-15c0-8.402344-6.597656-15-15-15zm-210 180c-8.402344 0-15 6.597656-15 15 0 8.398438 6.597656 15 15 15s15-6.601562 15-15c0-8.402344-6.597656-15-15-15zm-30-120c-8.402344 0-15 6.597656-15 15 0 8.398438 6.597656 15 15 15s15-6.601562 15-15c0-8.402344-6.597656-15-15-15zm0 0"/></svg>